Coordinates
version=1
nRows=14
nColumns=42
inDegrees=yes

Units are S.I. units (second, meters, Newtons, ...)
If the header above contains a line with 'inDegrees', this indicates whether rotational values are in degrees (yes) or radians (no).

endheader
time	pelvis_tilt	pelvis_list	pelvis_rotation	pelvis_tx	pelvis_ty	pelvis_tz	hip_flexion_r	hip_adduction_r	hip_rotation_r	knee_angle_r	knee_adduction_r	knee_angle_r_beta	ankle_angle_r	subtalar_angle_r	mtp_angle_r	hip_flexion_l	hip_adduction_l	hip_rotation_l	knee_angle_l	knee_adduction_l	knee_angle_l_beta	ankle_angle_l	subtalar_angle_l	mtp_angle_l	lumbar_extension	lumbar_bending	lumbar_rotation	arm_flex_r	arm_add_r	arm_rot_r	elbow_flex_r	pro_sup_r	wrist_flex_r	wrist_dev_r	arm_flex_l	arm_add_l	arm_rot_l	elbow_flex_l	pro_sup_l	wrist_flex_l	wrist_dev_l
      1.30000000	     10.78431827	      7.33449343	     19.04238965	      0.15668648	      0.90445435	      0.48046632	     -9.36387012	     -0.96281512	    -21.19908512	     20.20167770	      2.85156640	      0.35258579	     21.03849135	     -0.88953538	     -7.98270425	     25.20453447	     -7.86503971	      2.38834085	     27.02054844	      5.72088074	      0.47159754	      6.97468828	      7.58347362	     -7.98270425	    -25.33422738	     -5.46532605	     -0.23553446	    -12.09304847	    -23.27144068	    -29.33588962	     65.64519521	     90.00000001	      0.00000000	      0.00000000	     -0.17957974	    -20.63767242	     14.61244470	     85.34250939	     90.00000001	      0.00000000	      0.00000000
      1.31000000	     11.11078657	      7.30277038	     18.77105537	      0.15907410	      0.90402790	      0.48035840	     -9.74846999	     -0.83471248	    -20.96042257	     20.40523108	      2.84586422	      0.35613847	     21.13161140	     -1.00635841	     -7.97601242	     25.64234002	     -7.73817369	      2.06216561	     27.26687599	      5.79897485	      0.47589676	      6.95842117	      7.73617338	     -7.97601242	    -25.44219070	     -5.38573966	     -0.02128255	    -11.87170705	    -23.25633857	    -29.02520336	     66.10211745	     90.00000001	      0.00000000	      0.00000000	     -0.41138077	    -20.76915359	     14.42304531	     85.22491778	     90.00000001	      0.00000000	      0.00000000
      1.32000000	     11.28378869	      7.24721123	     18.57645255	      0.16138320	      0.90347556	      0.48007328	     -9.95626158	     -0.75546421	    -20.81719845	     20.63878936	      2.82928423	      0.36021483	     21.04022703	     -0.90685473	     -7.97259295	     26.10078319	     -7.49718431	      1.99488587	     27.29216564	      5.89959018	      0.47633815	      6.92763667	      7.76509903	     -7.97259295	    -25.41168607	     -5.32746457	      0.27272154	    -11.74167626	    -23.22674998	    -28.91804932	     66.18166828	     90.00000001	      0.00000000	      0.00000000	     -0.50943921	    -20.81767649	     14.36360988	     85.17728531	     90.00000001	      0.00000000	      0.00000000
      1.33000000	     11.84461048	      7.24817357	     18.21864514	      0.16409525	      0.90329649	      0.47982583	    -10.76548023	     -0.60643775	    -20.55286460	     20.56490471	      2.92586427	      0.35892530	     21.72294113	     -1.25179630	     -7.96525987	     26.28815017	     -7.39460551	      1.32745307	     27.93250697	      5.79287755	      0.48751421	      6.85513379	      7.92960872	     -7.96525987	    -25.78155592	     -5.17095647	      0.47464985	    -11.82984645	    -23.32640111	    -28.19534554	     67.46521823	     90.00000001	      0.00000000	      0.00000000	     -0.97796002	    -20.84024123	     13.79754598	     85.26683326	     90.00000001	      0.00000000	      0.00000000
      1.34000000	     12.04209570	      7.16029110	     17.89120876	      0.16674213	      0.90282326	      0.47958830	    -11.04986251	     -0.53446590	    -20.40469939	     20.71363795	      2.94590772	      0.36152118	     21.67188824	     -1.19485320	     -7.96221288	     26.57570031	     -7.17113560	      1.33105246	     28.01866180	      5.80129009	      0.48901790	      6.81662806	      8.02250131	     -7.96221288	    -25.72704248	     -5.11654366	      0.82893957	    -11.69122028	    -23.25473004	    -27.98833170	     67.67539778	     90.00000001	      0.00000000	      0.00000000	     -1.24169978	    -20.87340102	     13.72516389	     85.19798463	     90.00000001	      0.00000000	      0.00000000
      1.35000000	     12.69197194	      7.20583490	     17.47171791	      0.16963178	      0.90306878	      0.47929888	    -12.18105078	     -0.39219736	    -19.58640953	     20.21998959	      3.24584469	      0.35290539	     21.67246479	     -1.78166912	     -7.93495686	     26.32790682	     -7.02385980	      0.34545785	     28.30545014	      5.45642803	      0.49402330	      7.02414274	      9.60745165	     -7.93495686	    -26.21060051	     -5.02209224	      0.99852630	    -11.70942909	    -23.50808444	    -26.85410875	     68.64711709	     90.00000001	      0.00000000	      0.00000000	     -1.73678359	    -20.79499816	     13.05334685	     85.37356061	     90.00000001	      0.00000000	      0.00000000
      1.36000000	     12.82442451	      7.09214076	     17.15664089	      0.17238484	      0.90257417	      0.47896215	    -12.40288077	     -0.32580415	    -19.51285536	     20.37166957	      3.24137963	      0.35555271	     21.65375900	     -1.72427726	     -7.93248786	     26.54560440	     -6.79521446	      0.40638411	     28.37128371	      5.50238968	      0.49517231	      6.97059334	      9.62720333	     -7.93248786	    -26.08564020	     -4.95613646	      1.32110003	    -11.54540796	    -23.36636393	    -26.70307752	     68.83755117	     90.00000001	      0.00000000	      0.00000000	     -2.01162247	    -20.79460497	     13.04711229	     85.28185940	     90.00000001	      0.00000000	      0.00000000
      1.37000000	     12.95853946	      6.98358704	     16.82567375	      0.17520772	      0.90208986	      0.47864245	    -12.65279254	     -0.25761242	    -19.43185780	     20.47961403	      3.23280337	      0.35743669	     21.69950327	     -1.67560053	     -7.93007359	     26.68784143	     -6.55742387	      0.49244258	     28.43119715	      5.53202364	      0.49621800	      6.89773715	      9.64510499	     -7.93007359	    -25.97048843	     -4.89521910	      1.60559804	    -11.37618727	    -23.21230152	    -26.50090093	     69.15788122	     90.00000001	      0.00000000	      0.00000000	     -2.36121559	    -20.79467034	     13.02173758	     85.17335197	     90.00000001	      0.00000000	      0.00000000
      1.38000000	     13.33927080	      7.06114133	     16.59476627	      0.17801917	      0.90208832	      0.47801002	    -13.45032464	     -0.22278355	    -19.19302181	     20.13076661	      3.28851201	      0.35134816	     22.34178081	     -1.66119551	     -7.92649175	     26.30484525	     -6.11763315	      0.64523784	     28.20362335	      5.54559504	      0.49224609	      6.65272422	      9.60457761	     -7.92649175	    -26.23970427	     -4.81985047	      1.54008032	    -11.46719306	    -23.19084471	    -25.75519490	     70.64063091	     90.00000001	      0.00000000	      0.00000000	     -2.86511667	    -20.76176129	     12.55971550	     85.20872122	     90.00000001	      0.00000000	      0.00000000
      1.39000000	     13.71103051	      7.11531684	     16.17800909	      0.18100117	      0.90213970	      0.47755556	    -14.18616105	     -0.32743079	    -18.93702294	     19.92821261	      3.50161405	      0.34781292	     22.39554287	     -1.38993906	     -7.91893492	     25.76245236	     -5.75364729	      0.84297885	     27.83042244	      5.56836369	      0.48573250	      6.41738727	      9.42717506	     -7.91893492	    -26.44597772	     -4.84856331	      1.75853064	    -11.47906402	    -23.28989733	    -24.95219126	     71.29664992	     90.00000001	      0.00000000	      0.00000000	     -3.30076892	    -20.61696575	     12.20481274	     85.26294771	     90.00000001	      0.00000000	      0.00000000
      1.40000000	     13.77496867	      6.95130468	     15.83834220	      0.18410725	      0.90160318	      0.47710884	    -14.37803144	     -0.24536684	    -18.89143120	     20.00970387	      3.48189946	      0.34923521	     22.40462880	     -1.35005789	     -7.91733246	     25.73929361	     -5.53866471	      0.97022291	     27.81667381	      5.54673659	      0.48549254	      6.35794366	      9.43443409	     -7.91733246	    -26.22900247	     -4.75319291	      2.03242792	    -11.29442152	    -23.07882533	    -24.77242945	     71.50206876	     90.00000001	      0.00000000	      0.00000000	     -3.68875706	    -20.56300865	     12.26452888	     85.15622031	     90.00000001	      0.00000000	      0.00000000
      1.41000000	     13.90164411	      6.85978451	     15.49940907	      0.18714482	      0.90126048	      0.47672270	    -14.70029442	     -0.11922820	    -18.64465473	     19.92699785	      3.35510266	      0.34779172	     22.64640314	     -1.23940862	     -7.91429539	     25.36107601	     -5.22984526	      1.20472680	     27.34297377	      5.49322150	      0.47722492	      6.20851048	      9.39825525	     -7.91429539	    -26.14997900	     -4.68386807	      2.08904079	    -11.11464731	    -22.93662234	    -24.27237942	     72.34173985	     90.00000001	      0.00000000	      0.00000000	     -4.21312595	    -20.56206203	     12.14446129	     85.04551724	     90.00000001	      0.00000000	      0.00000000
      1.42000000	     13.94590768	      6.69081751	     15.17566457	      0.19045237	      0.90066455	      0.47620747	    -14.90664053	     -0.04980995	    -18.60591982	     19.97754644	      3.37590525	      0.34867396	     22.68309621	     -1.19392039	     -7.91295156	     25.19633125	     -5.02397541	      1.36742555	     27.26610475	      5.47525482	      0.47588330	      6.13453746	      9.40093063	     -7.91295156	    -25.90557625	     -4.59217468	      2.37834224	    -11.03918308	    -22.75270621	    -24.04415020	     72.56759699	     90.00000001	      0.00000000	      0.00000000	     -4.59806041	    -20.42282361	     12.18842822	     84.99107122	     90.00000001	      0.00000000	      0.00000000
      1.43000000	     14.35034333	      6.95364111	     14.73440922	      0.19363768	      0.90101936	      0.47564455	    -15.78269982	     -0.38057588	    -18.38592771	     19.70989224	      3.54352361	      0.34400251	     23.07974707	     -0.63355838	     -7.88559312	     23.81740444	     -4.39612051	      2.13732094	     25.90428815	      5.60859453	      0.45211512	      5.49884562	      8.18561675	     -7.88559312	    -26.25333202	     -4.81788192	      2.33045588	    -11.00240501	    -22.85037159	    -22.92745784	     73.60002664	     90.00000001	      0.00000000	      0.00000000	     -5.14770764	    -20.25933729	     11.75716504	     85.06730974	     90.00000001	      0.00000000	      0.00000000
